<?xml version="1.0" encoding="UTF-8"?>
<svg id="Capa_1" data-name="Capa 1" xmlns="http://www.w3.org/2000/svg" version="1.1" viewBox="0 0 496 512">
  <defs>
    <style>
      .cls-1 {
        fill: #213e9d;
        stroke-width: 0px;
      }
    </style>
  </defs>
  <path class="cls-1" d="M496,256c0,137-111,248-248,248s-50.2-3.9-73.4-11.1c10.1-16.5,25.2-43.5,30.8-65,3-11.6,15.4-59,15.4-59,8.1,15.4,31.7,28.5,56.8,28.5,74.8,0,128.7-68.8,128.7-154.3s-66.9-143.2-152.9-143.2S89.5,171.7,89.5,250s19.4,81.7,50.3,96.1c4.7,2.2,7.2,1.2,8.3-3.3.8-3.4,5-20.3,6.9-28.1.6-2.5.3-4.7-1.7-7.1-10.1-12.5-18.3-35.3-18.3-56.6,0-54.7,41.4-107.6,112-107.6s103.6,41.5,103.6,100.9-33.9,113.6-78,113.6-42.6-20.1-36.7-44.8c7-29.5,20.5-61.3,20.5-82.6s-10.2-34.9-31.4-34.9-44.9,25.7-44.9,60.2,7.4,36.8,7.4,36.8c0,0-24.5,103.8-29,123.2-5,21.4-3,51.6-.9,71.2C65.4,450.9,0,361.1,0,256S111,8,248,8s248,111,248,248Z"/>
</svg>