<?xml version="1.0" encoding="UTF-8"?>
<svg id="Capa_1" data-name="Capa 1" xmlns="http://www.w3.org/2000/svg" version="1.1" viewBox="0 0 448 512">
  <defs>
    <style>
      .cls-1 {
        fill: #213e9d;
        stroke-width: 0px;
      }
    </style>
  </defs>
  <path class="cls-1" d="M448,209.9c-44,0-87-13.7-122.8-39.3v178.8c0,89.8-72.8,162.6-162.7,162.5C72.7,511.9,0,439.1,0,349.3c0-89.8,72.8-162.6,162.7-162.5,7.5,0,14.9.5,22.3,1.6v89.9c-39.3-12.4-81.2,9.5-93.6,48.8-12.4,39.3,9.5,81.2,48.8,93.6,39.3,12.4,81.2-9.5,93.6-48.8,2.3-7.2,3.4-14.8,3.4-22.4V0h88c0,7.4.6,14.9,1.9,22.2h0c6.2,33,25.7,62,53.9,80.2,19.9,13.1,43.2,20.1,67,20.1v87.4Z"/>
</svg>